<?xml version="1.0" encoding="UTF-8" standalone="no"?>
<svg
   xmlns:dc="http://purl.org/dc/elements/1.1/"
   xmlns:cc="http://creativecommons.org/ns#"
   xmlns:rdf="http://www.w3.org/1999/02/22-rdf-syntax-ns#"
   xmlns:svg="http://www.w3.org/2000/svg"
   xmlns="http://www.w3.org/2000/svg"
   xmlns:sodipodi="http://sodipodi.sourceforge.net/DTD/sodipodi-0.dtd"
   xmlns:inkscape="http://www.inkscape.org/namespaces/inkscape"
   width="63mm"
   height="88mm"
   viewBox="0 0 63 88"
   version="1.1"
   id="svg8"
   inkscape:version="1.0 (4035a4fb49, 2020-05-01)"
   sodipodi:docname="11.svg">
  <defs
     id="defs2" />
  <sodipodi:namedview
     id="base"
     pagecolor="#ffffff"
     bordercolor="#666666"
     borderopacity="1.0"
     inkscape:pageopacity="0.0"
     inkscape:pageshadow="2"
     inkscape:zoom="1.979899"
     inkscape:cx="8.7261081"
     inkscape:cy="206.54386"
     inkscape:document-units="mm"
     inkscape:current-layer="layer3"
     inkscape:document-rotation="0"
     showgrid="false"
     inkscape:window-width="2560"
     inkscape:window-height="1377"
     inkscape:window-x="1912"
     inkscape:window-y="-8"
     inkscape:window-maximized="1" />
  <metadata
     id="metadata5">
    <rdf:RDF>
      <cc:Work
         rdf:about="">
        <dc:format>image/svg+xml</dc:format>
        <dc:type
           rdf:resource="http://purl.org/dc/dcmitype/StillImage" />
        <dc:title />
      </cc:Work>
    </rdf:RDF>
  </metadata>
  <g
     inkscape:label="Background"
     inkscape:groupmode="layer"
     id="layer1"
     sodipodi:insensitive="true">
    <rect
       style="fill:#1c71d8;stroke-width:0.00054882;paint-order:markers fill stroke"
       id="rect1402"
       width="63"
       height="88"
       x="0"
       y="0"
       ry="5" />
    <path
       id="path1474"
       style="fill:#62a0ea;stroke-width:1.00875"
       d="m 0,132.14844 v 181.55273 c 0,10.46929 8.4291462,18.89649 18.898438,18.89649 H 204.875 c 5.72115,-21.57845 11.04393,-42.97225 7.57422,-60.36524 C 204.3254,226.76135 134.18184,209.08047 80.490234,183.83594 48.369803,169.1634 21.498855,151.89648 0,132.14844 Z"
       transform="scale(0.26458333)" />
  </g>
  <g
     inkscape:groupmode="layer"
     id="layer2"
     inkscape:label="Edges"
     sodipodi:insensitive="true">
    <circle
       style="fill:#99c1f1;stroke-width:0.00054882;paint-order:markers fill stroke"
       id="path1411"
       cx="7.5"
       cy="7.5"
       r="6" />
    <circle
       r="6"
       cy="81"
       cx="56"
       id="path1411-3"
       style="fill:#99c1f1;stroke-width:0.00054882;paint-order:markers fill stroke" />
  </g>
  <g
     inkscape:groupmode="layer"
     id="layer3"
     inkscape:label="Zahlen">
    <g
       style="font-style:normal;font-variant:normal;font-weight:normal;font-stretch:normal;font-size:33.4406px;line-height:1.35;font-family:Emmett;-inkscape-font-specification:Emmett;text-align:center;text-anchor:middle;stroke-width:0.174169"
       id="text1431"
       transform="scale(0.97823792,1.0222462)"
       aria-label="11">
      <path
         id="path842"
         style="font-style:normal;font-variant:normal;font-weight:normal;font-stretch:normal;font-family:Emmett;-inkscape-font-specification:Emmett;stroke-width:0.174169"
         d="m 25.930905,51.235416 q 0.401287,2.273961 0.401287,3.009654 0,0.836015 -0.501609,0.836015 h -6.387155 q -0.300965,0 -0.434728,-0.802574 -0.100321,-0.802575 -0.100321,-3.544704 v -2.006436 -1.471387 -1.270742 l 0.06688,-2.240521 0.133762,-3.477822 q 0,-0.802575 0,-1.538268 0,-0.735693 0.03344,-1.404505 0,-1.67203 -0.267525,-2.273961 -0.267525,-0.635371 -1.437946,-1.504827 -0.234084,-0.133762 -0.234084,-0.56849 0,-0.234084 0.06688,-0.401288 0.06688,-0.234084 0.735693,-0.56849 0.668812,-0.334406 1.0701,-0.468168 l 1.772351,-0.635372 0.167203,-0.03344 0.836016,-0.200644 q 1.270742,-0.200643 2.073317,-0.200643 1.237302,0 1.738911,0.401287 0.501609,0.401287 0.501609,1.304183 0,0.468169 -0.200644,1.471387 -0.200643,0.969777 -0.334406,2.140198 -0.133762,1.136981 -0.133762,3.377501 0,1.772352 0,3.410941 0,1.63859 0.03344,3.143417 0,1.839233 0.100321,3.109976 0.100322,1.237302 0.300966,2.407723 z" />
      <path
         id="path844"
         style="font-style:normal;font-variant:normal;font-weight:normal;font-stretch:normal;font-family:Emmett;-inkscape-font-specification:Emmett;stroke-width:0.174169"
         d="m 45.459694,51.235416 q 0.401288,2.273961 0.401288,3.009654 0,0.836015 -0.501609,0.836015 h -6.387155 q -0.300966,0 -0.434728,-0.802574 -0.100322,-0.802575 -0.100322,-3.544704 v -2.006436 -1.471387 -1.270742 l 0.06688,-2.240521 0.133763,-3.477822 q 0,-0.802575 0,-1.538268 0,-0.735693 0.03344,-1.404505 0,-1.67203 -0.267524,-2.273961 -0.267525,-0.635371 -1.437946,-1.504827 -0.234085,-0.133762 -0.234085,-0.56849 0,-0.234084 0.06688,-0.401288 0.06688,-0.234084 0.735693,-0.56849 0.668812,-0.334406 1.070099,-0.468168 l 1.772352,-0.635372 0.167203,-0.03344 0.836015,-0.200644 q 1.270743,-0.200643 2.073317,-0.200643 1.237303,0 1.738912,0.401287 0.501609,0.401287 0.501609,1.304183 0,0.468169 -0.200644,1.471387 -0.200644,0.969777 -0.334406,2.140198 -0.133762,1.136981 -0.133762,3.377501 0,1.772352 0,3.410941 0,1.63859 0.03344,3.143417 0,1.839233 0.100322,3.109976 0.100322,1.237302 0.300965,2.407723 z" />
    </g>
    <g
       style="font-style:normal;font-variant:normal;font-weight:normal;font-stretch:normal;font-size:8.51502px;line-height:1.35;font-family:Emmett;-inkscape-font-specification:Emmett;text-align:center;text-anchor:middle;stroke-width:0.0443487"
       id="text1431-3"
       transform="scale(0.97823792,1.0222462)"
       aria-label="11">
      <path
         id="path847"
         style="font-style:normal;font-variant:normal;font-weight:normal;font-stretch:normal;font-family:Emmett;-inkscape-font-specification:Emmett;stroke-width:0.0443487"
         d="m 55.649288,81.323454 q 0.102181,0.579021 0.102181,0.766351 0,0.212876 -0.127726,0.212876 h -1.626369 q -0.07664,0 -0.110695,-0.204361 -0.02555,-0.20436 -0.02555,-0.902592 v -0.510901 -0.374661 -0.323571 l 0.01703,-0.570506 0.03406,-0.885562 q 0,-0.204361 0,-0.391691 0,-0.18733 0.0085,-0.357631 0,-0.425751 -0.06812,-0.579021 -0.06812,-0.161786 -0.366146,-0.383176 -0.0596,-0.03406 -0.0596,-0.144755 0,-0.05961 0.01703,-0.102181 0.01703,-0.05961 0.187331,-0.144755 0.1703,-0.08515 0.27248,-0.11921 l 0.451296,-0.161786 0.04257,-0.0085 0.212876,-0.05109 q 0.323571,-0.05109 0.527931,-0.05109 0.315056,0 0.442781,0.10218 0.127726,0.10218 0.127726,0.332086 0,0.11921 -0.05109,0.374661 -0.05109,0.246936 -0.08515,0.544961 -0.03406,0.289511 -0.03406,0.860017 0,0.451296 0,0.868532 0,0.417236 0.0085,0.800412 0,0.468326 0.02555,0.791897 0.02554,0.315056 0.07663,0.613082 z" />
      <path
         id="path849"
         style="font-style:normal;font-variant:normal;font-weight:normal;font-stretch:normal;font-family:Emmett;-inkscape-font-specification:Emmett;stroke-width:0.0443487"
         d="m 60.621927,81.323454 q 0.102181,0.579021 0.102181,0.766351 0,0.212876 -0.127726,0.212876 h -1.626368 q -0.07664,0 -0.110696,-0.204361 -0.02555,-0.20436 -0.02555,-0.902592 v -0.510901 -0.374661 -0.323571 l 0.01703,-0.570506 0.03406,-0.885562 q 0,-0.204361 0,-0.391691 0,-0.18733 0.0085,-0.357631 0,-0.425751 -0.06812,-0.579021 -0.06812,-0.161786 -0.366146,-0.383176 -0.0596,-0.03406 -0.0596,-0.144755 0,-0.05961 0.01703,-0.102181 0.01703,-0.05961 0.187331,-0.144755 0.1703,-0.08515 0.27248,-0.11921 l 0.451296,-0.161786 0.04258,-0.0085 0.212875,-0.05109 q 0.323571,-0.05109 0.527931,-0.05109 0.315056,0 0.442781,0.10218 0.127726,0.10218 0.127726,0.332086 0,0.11921 -0.05109,0.374661 -0.05109,0.246936 -0.08515,0.544961 -0.03406,0.289511 -0.03406,0.860017 0,0.451296 0,0.868532 0,0.417236 0.0085,0.800412 0,0.468326 0.02555,0.791897 0.02554,0.315056 0.07663,0.613082 z" />
    </g>
    <g
       style="font-style:normal;font-variant:normal;font-weight:normal;font-stretch:normal;font-size:8.51503px;line-height:1.35;font-family:Emmett;-inkscape-font-specification:Emmett;text-align:center;text-anchor:middle;stroke-width:0.0443487"
       id="text1431-3-3"
       transform="scale(0.97823792,1.0222462)"
       aria-label="11">
      <path
         id="path852"
         style="font-style:normal;font-variant:normal;font-weight:normal;font-stretch:normal;font-family:Emmett;-inkscape-font-specification:Emmett;stroke-width:0.0443487"
         d="m 6.0703452,9.4229665 q 0.1021803,0.5790225 0.1021803,0.7663525 0,0.212876 -0.1277254,0.212876 H 4.4184294 q -0.076635,0 -0.1106954,-0.204361 Q 4.2821889,9.9934735 4.2821889,9.2952411 V 8.7843393 8.409678 8.0861068 l 0.01703,-0.570507 0.03406,-0.8855631 q 0,-0.2043607 0,-0.3916913 0,-0.1873307 0.00852,-0.3576313 0,-0.4257515 -0.06812,-0.579022 -0.06812,-0.1617856 -0.3661463,-0.3831764 -0.059605,-0.03406 -0.059605,-0.1447555 0,-0.059605 0.01703,-0.1021804 0.01703,-0.059605 0.1873307,-0.1447555 0.1703006,-0.08515 0.272481,-0.1192104 l 0.4512965,-0.1617855 0.042575,-0.00852 0.2128757,-0.05109 q 0.3235712,-0.05109 0.5279319,-0.05109 0.3150561,0 0.4427816,0.1021803 0.1277254,0.1021804 0.1277254,0.3320862 0,0.1192104 -0.05109,0.3746613 -0.05109,0.2469359 -0.08515,0.5449619 -0.03406,0.289511 -0.03406,0.860018 0,0.4512966 0,0.8685331 0,0.4172365 0.00852,0.8004128 0,0.4683266 0.025545,0.7918978 0.025545,0.3150561 0.076635,0.6130821 z" />
      <path
         id="path854"
         style="font-style:normal;font-variant:normal;font-weight:normal;font-stretch:normal;font-family:Emmett;-inkscape-font-specification:Emmett;stroke-width:0.0443487"
         d="m 11.04299,9.4229665 q 0.10218,0.5790225 0.10218,0.7663525 0,0.212876 -0.127726,0.212876 H 9.3910737 q -0.076635,0 -0.1106954,-0.204361 Q 9.2548332,9.9934735 9.2548332,9.2952411 V 8.7843393 8.409678 8.0861068 l 0.01703,-0.570507 0.03406,-0.8855631 q 0,-0.2043607 0,-0.3916913 0,-0.1873307 0.00852,-0.3576313 0,-0.4257515 -0.06812,-0.579022 -0.06812,-0.1617856 -0.3661463,-0.3831764 -0.059605,-0.03406 -0.059605,-0.1447555 0,-0.059605 0.01703,-0.1021804 0.01703,-0.059605 0.1873306,-0.1447555 0.1703006,-0.08515 0.272481,-0.1192104 l 0.4512966,-0.1617855 0.042575,-0.00852 0.2128759,-0.05109 q 0.323571,-0.05109 0.527932,-0.05109 0.315056,0 0.442781,0.1021803 0.127726,0.1021804 0.127726,0.3320862 0,0.1192104 -0.05109,0.3746613 -0.05109,0.2469359 -0.08515,0.5449619 -0.03406,0.289511 -0.03406,0.860018 0,0.4512966 0,0.8685331 0,0.4172365 0.0085,0.8004128 0,0.4683266 0.02555,0.7918978 0.02554,0.3150561 0.07664,0.6130821 z" />
    </g>
  </g>
</svg>
