<?xml version="1.0" encoding="UTF-8" standalone="no"?>
<svg
   xmlns:dc="http://purl.org/dc/elements/1.1/"
   xmlns:cc="http://creativecommons.org/ns#"
   xmlns:rdf="http://www.w3.org/1999/02/22-rdf-syntax-ns#"
   xmlns:svg="http://www.w3.org/2000/svg"
   xmlns="http://www.w3.org/2000/svg"
   xmlns:sodipodi="http://sodipodi.sourceforge.net/DTD/sodipodi-0.dtd"
   xmlns:inkscape="http://www.inkscape.org/namespaces/inkscape"
   width="63mm"
   height="88mm"
   viewBox="0 0 63 88"
   version="1.1"
   id="svg8"
   inkscape:version="1.0 (4035a4fb49, 2020-05-01)"
   sodipodi:docname="22.svg">
  <defs
     id="defs2" />
  <sodipodi:namedview
     id="base"
     pagecolor="#ffffff"
     bordercolor="#666666"
     borderopacity="1.0"
     inkscape:pageopacity="0.0"
     inkscape:pageshadow="2"
     inkscape:zoom="1.979899"
     inkscape:cx="8.7261081"
     inkscape:cy="206.54386"
     inkscape:document-units="mm"
     inkscape:current-layer="layer3"
     inkscape:document-rotation="0"
     showgrid="false"
     inkscape:window-width="2560"
     inkscape:window-height="1377"
     inkscape:window-x="1912"
     inkscape:window-y="-8"
     inkscape:window-maximized="1" />
  <metadata
     id="metadata5">
    <rdf:RDF>
      <cc:Work
         rdf:about="">
        <dc:format>image/svg+xml</dc:format>
        <dc:type
           rdf:resource="http://purl.org/dc/dcmitype/StillImage" />
        <dc:title />
      </cc:Work>
    </rdf:RDF>
  </metadata>
  <g
     inkscape:label="Background"
     inkscape:groupmode="layer"
     id="layer1"
     sodipodi:insensitive="true">
    <rect
       style="fill:#1c71d8;stroke-width:0.00054882;paint-order:markers fill stroke"
       id="rect1402"
       width="63"
       height="88"
       x="0"
       y="0"
       ry="5" />
    <path
       id="path1474"
       style="fill:#62a0ea;stroke-width:1.00875"
       d="m 0,132.14844 v 181.55273 c 0,10.46929 8.4291462,18.89649 18.898438,18.89649 H 204.875 c 5.72115,-21.57845 11.04393,-42.97225 7.57422,-60.36524 C 204.3254,226.76135 134.18184,209.08047 80.490234,183.83594 48.369803,169.1634 21.498855,151.89648 0,132.14844 Z"
       transform="scale(0.26458333)" />
  </g>
  <g
     inkscape:groupmode="layer"
     id="layer2"
     inkscape:label="Edges"
     sodipodi:insensitive="true">
    <circle
       style="fill:#99c1f1;stroke-width:0.00054882;paint-order:markers fill stroke"
       id="path1411"
       cx="7.5"
       cy="7.5"
       r="6" />
    <circle
       r="6"
       cy="81"
       cx="56"
       id="path1411-3"
       style="fill:#99c1f1;stroke-width:0.00054882;paint-order:markers fill stroke" />
  </g>
  <g
     inkscape:groupmode="layer"
     id="layer3"
     inkscape:label="Zahlen">
    <g
       style="font-style:normal;font-variant:normal;font-weight:normal;font-stretch:normal;font-size:33.4406px;line-height:1.35;font-family:Emmett;-inkscape-font-specification:Emmett;text-align:center;text-anchor:middle;stroke-width:0.174169"
       id="text1431"
       transform="scale(0.97823792,1.0222462)"
       aria-label="22">
      <path
         id="path842"
         style="font-style:normal;font-variant:normal;font-weight:normal;font-stretch:normal;font-family:Emmett;-inkscape-font-specification:Emmett;stroke-width:0.174169"
         d="m 29.440601,48.192321 0.367846,-0.535049 q 0.601931,0.668812 0.869456,1.571708 0.300965,0.902896 0.300965,2.039877 -0.06688,0.468168 -0.167203,0.802574 -0.06688,0.334406 -0.234084,0.668812 -0.635371,1.437946 -1.67203,2.006436 -1.036659,0.56849 -3.377501,0.56849 -0.635371,0 -1.504827,-0.06688 -0.836015,-0.03344 -2.374283,-0.167203 l -1.13698,-0.133762 q -0.234084,-0.03344 -0.401287,-0.03344 -0.668812,0.06688 -1.337624,0.133763 l -0.568491,0.06688 -0.702252,0.100322 -1.270743,0.200643 q -0.53505,0.06688 -0.668812,0.06688 -0.468168,0 -0.702253,-0.200643 -0.434728,-0.367847 -0.434728,-1.504827 0,-0.601931 0.100322,-1.571709 0.100322,-0.969777 0.735694,-2.574926 0.434727,-1.170421 1.203861,-2.273961 0.802575,-1.10354 2.173639,-2.508045 0.601931,-0.601931 1.270743,-1.170421 0.802575,-0.702252 2.039877,-1.605149 0.300965,-0.234084 0.635371,-0.601931 0.334406,-0.401287 0.769134,-1.036658 l 0.434728,-0.769134 q 0.535049,-1.270743 0.535049,-2.140199 0,-1.471386 -1.404505,-1.839233 -0.334406,-0.06688 -0.501609,-0.06688 -0.702252,0 -1.504827,0.501609 -0.802574,0.468169 -1.939555,1.605149 l -0.401287,0.501609 -1.036659,1.270743 q -0.167203,0.200644 -0.56849,-0.03344 -0.367846,-0.234084 -0.802574,-1.036658 l -0.53505,-0.969778 q -0.735693,-1.404505 -0.735693,-2.106758 0,-0.936336 1.571708,-2.474604 2.374283,-2.273961 6.821883,-2.273961 0.735693,0 1.371065,0.100322 0.635371,0.06688 1.638589,0.434728 2.273961,0.836015 3.34406,2.273961 1.070099,1.437945 1.070099,3.778787 0,0.702253 -0.100321,1.504828 -0.300966,2.474604 -2.374283,4.681684 -0.53505,0.635371 -2.073317,1.772352 l -0.902897,0.635371 -0.60193,0.468168 -0.06688,0.06688 -1.337624,1.103539 q -0.802574,0.668813 -1.10354,1.10354 -0.300965,0.401288 -0.234084,0.702253 0.03344,0.167203 0.200644,0.267525 0.03344,0.03344 0.100322,0.06688 l 1.270742,-0.100322 h 1.437946 l 1.437946,0.167203 q 0.501609,0.06688 0.735693,0.03344 0.702253,-0.06688 1.237303,-0.401287 0.56849,-0.334406 1.10354,-1.0701 z" />
      <path
         id="path844"
         style="font-style:normal;font-variant:normal;font-weight:normal;font-stretch:normal;font-family:Emmett;-inkscape-font-specification:Emmett;stroke-width:0.174169"
         d="m 48.904075,48.192321 0.367846,-0.535049 q 0.601931,0.668812 0.869456,1.571708 0.300965,0.902896 0.300965,2.039877 -0.06688,0.468168 -0.167203,0.802574 -0.06688,0.334406 -0.234084,0.668812 -0.635371,1.437946 -1.67203,2.006436 -1.036658,0.56849 -3.377501,0.56849 -0.635371,0 -1.504827,-0.06688 -0.836015,-0.03344 -2.374282,-0.167203 l -1.136981,-0.133762 q -0.234084,-0.03344 -0.401287,-0.03344 -0.668812,0.06688 -1.337624,0.133763 l -0.56849,0.06688 -0.702253,0.100322 -1.270743,0.200643 q -0.535049,0.06688 -0.668812,0.06688 -0.468168,0 -0.702252,-0.200643 -0.434728,-0.367847 -0.434728,-1.504827 0,-0.601931 0.100322,-1.571709 0.100321,-0.969777 0.735693,-2.574926 0.434728,-1.170421 1.203861,-2.273961 0.802575,-1.10354 2.17364,-2.508045 0.60193,-0.601931 1.270742,-1.170421 0.802575,-0.702252 2.039877,-1.605149 0.300965,-0.234084 0.635372,-0.601931 0.334406,-0.401287 0.769133,-1.036658 l 0.434728,-0.769134 q 0.53505,-1.270743 0.53505,-2.140199 0,-1.471386 -1.404505,-1.839233 -0.334406,-0.06688 -0.50161,-0.06688 -0.702252,0 -1.504827,0.501609 -0.802574,0.468169 -1.939554,1.605149 l -0.401288,0.501609 -1.036658,1.270743 q -0.167203,0.200644 -0.568491,-0.03344 -0.367846,-0.234084 -0.802574,-1.036658 l -0.53505,-0.969778 q -0.735693,-1.404505 -0.735693,-2.106758 0,-0.936336 1.571708,-2.474604 2.374283,-2.273961 6.821883,-2.273961 0.735693,0 1.371065,0.100322 0.635371,0.06688 1.638589,0.434728 2.273961,0.836015 3.34406,2.273961 1.0701,1.437945 1.0701,3.778787 0,0.702253 -0.100322,1.504828 -0.300966,2.474604 -2.374283,4.681684 -0.535049,0.635371 -2.073317,1.772352 l -0.902896,0.635371 -0.601931,0.468168 -0.06688,0.06688 -1.337624,1.103539 q -0.802575,0.668813 -1.10354,1.10354 -0.300966,0.401288 -0.234085,0.702253 0.03344,0.167203 0.200644,0.267525 0.03344,0.03344 0.100322,0.06688 l 1.270743,-0.100322 h 1.437946 l 1.437945,0.167203 q 0.501609,0.06688 0.735694,0.03344 0.702252,-0.06688 1.237302,-0.401287 0.56849,-0.334406 1.10354,-1.0701 z" />
    </g>
    <g
       style="font-style:normal;font-variant:normal;font-weight:normal;font-stretch:normal;font-size:8.51502px;line-height:1.35;font-family:Emmett;-inkscape-font-specification:Emmett;text-align:center;text-anchor:middle;stroke-width:0.0443487"
       id="text1431-3"
       transform="scale(0.97823792,1.0222462)"
       aria-label="22">
      <path
         id="path847"
         style="font-style:normal;font-variant:normal;font-weight:normal;font-stretch:normal;font-family:Emmett;-inkscape-font-specification:Emmett;stroke-width:0.0443487"
         d="m 56.542966,80.548587 0.09367,-0.136241 q 0.15327,0.170301 0.22139,0.400206 0.07664,0.229906 0.07664,0.519417 -0.01703,0.11921 -0.04257,0.20436 -0.01703,0.08515 -0.05961,0.170301 -0.161785,0.366145 -0.425751,0.510901 -0.263966,0.144755 -0.860017,0.144755 -0.161785,0 -0.383176,-0.01703 -0.212875,-0.0085 -0.604566,-0.04257 l -0.289511,-0.03406 q -0.0596,-0.0085 -0.10218,-0.0085 -0.170301,0.01703 -0.340601,0.03406 l -0.144755,0.01703 -0.178816,0.02555 -0.323571,0.05109 q -0.13624,0.01703 -0.1703,0.01703 -0.11921,0 -0.178815,-0.05109 -0.110696,-0.09367 -0.110696,-0.383176 0,-0.15327 0.02555,-0.400206 0.02555,-0.246935 0.187331,-0.655656 0.110695,-0.298026 0.306541,-0.579022 0.20436,-0.280995 0.553476,-0.638626 0.15327,-0.153271 0.323571,-0.298026 0.20436,-0.178815 0.519416,-0.408721 0.07664,-0.0596 0.161785,-0.15327 0.08515,-0.102181 0.195846,-0.263966 l 0.110695,-0.195845 q 0.13624,-0.323571 0.13624,-0.544962 0,-0.374661 -0.357631,-0.468326 -0.08515,-0.01703 -0.127725,-0.01703 -0.178815,0 -0.383176,0.127725 -0.20436,0.119211 -0.493871,0.408721 l -0.10218,0.127726 -0.263966,0.32357 q -0.04258,0.05109 -0.144755,-0.0085 -0.09367,-0.05961 -0.204361,-0.263965 l -0.13624,-0.246936 q -0.18733,-0.357631 -0.18733,-0.536446 0,-0.238421 0.400206,-0.630112 0.604566,-0.579021 1.737064,-0.579021 0.18733,0 0.349115,0.02554 0.161786,0.01703 0.417236,0.110695 0.579022,0.212876 0.851503,0.579022 0.27248,0.366146 0.27248,0.962197 0,0.178815 -0.02555,0.383176 -0.07664,0.630111 -0.604566,1.192103 -0.136241,0.161785 -0.527932,0.451296 l -0.229905,0.161785 -0.153271,0.119211 -0.01703,0.01703 -0.3406,0.280995 q -0.204361,0.170301 -0.280996,0.280996 -0.07664,0.10218 -0.0596,0.178815 0.0085,0.04258 0.05109,0.06812 0.0085,0.0085 0.02555,0.01703 l 0.323571,-0.02555 h 0.366146 l 0.366146,0.04257 q 0.127725,0.01703 0.18733,0.0085 0.178815,-0.01703 0.315056,-0.102181 0.144755,-0.08515 0.280995,-0.27248 z" />
      <path
         id="path849"
         style="font-style:normal;font-variant:normal;font-weight:normal;font-stretch:normal;font-family:Emmett;-inkscape-font-specification:Emmett;stroke-width:0.0443487"
         d="m 61.498974,80.548587 0.09367,-0.136241 q 0.15327,0.170301 0.22139,0.400206 0.07663,0.229906 0.07663,0.519417 -0.01703,0.11921 -0.04257,0.20436 -0.01703,0.08515 -0.0596,0.170301 -0.161785,0.366145 -0.425751,0.510901 -0.263966,0.144755 -0.860017,0.144755 -0.161785,0 -0.383176,-0.01703 -0.212875,-0.0085 -0.604566,-0.04257 l -0.289511,-0.03406 q -0.05961,-0.0085 -0.10218,-0.0085 -0.170301,0.01703 -0.340601,0.03406 l -0.144755,0.01703 -0.178816,0.02555 -0.323571,0.05109 q -0.13624,0.01703 -0.1703,0.01703 -0.11921,0 -0.178816,-0.05109 -0.110695,-0.09367 -0.110695,-0.383176 0,-0.15327 0.02555,-0.400206 0.02554,-0.246935 0.187331,-0.655656 0.110695,-0.298026 0.30654,-0.579022 0.204361,-0.280995 0.553477,-0.638626 0.15327,-0.153271 0.323571,-0.298026 0.20436,-0.178815 0.519416,-0.408721 0.07663,-0.0596 0.161785,-0.15327 0.08515,-0.102181 0.195846,-0.263966 l 0.110695,-0.195845 q 0.13624,-0.323571 0.13624,-0.544962 0,-0.374661 -0.357631,-0.468326 -0.08515,-0.01703 -0.127725,-0.01703 -0.178815,0 -0.383176,0.127725 -0.20436,0.119211 -0.493871,0.408721 l -0.10218,0.127726 -0.263966,0.32357 q -0.04257,0.05109 -0.144755,-0.0085 -0.09366,-0.05961 -0.204361,-0.263965 l -0.13624,-0.246936 q -0.18733,-0.357631 -0.18733,-0.536446 0,-0.238421 0.400205,-0.630112 0.604567,-0.579021 1.737065,-0.579021 0.18733,0 0.349115,0.02554 0.161786,0.01703 0.417236,0.110695 0.579022,0.212876 0.851502,0.579022 0.272481,0.366146 0.272481,0.962197 0,0.178815 -0.02555,0.383176 -0.07663,0.630111 -0.604566,1.192103 -0.136241,0.161785 -0.527932,0.451296 l -0.229905,0.161785 -0.153271,0.119211 -0.01703,0.01703 -0.3406,0.280995 q -0.204361,0.170301 -0.280996,0.280996 -0.07663,0.10218 -0.0596,0.178815 0.0085,0.04258 0.05109,0.06812 0.0085,0.0085 0.02555,0.01703 l 0.323571,-0.02555 h 0.366146 l 0.366145,0.04257 q 0.127726,0.01703 0.187331,0.0085 0.178815,-0.01703 0.315056,-0.102181 0.144755,-0.08515 0.280995,-0.27248 z" />
    </g>
    <g
       style="font-style:normal;font-variant:normal;font-weight:normal;font-stretch:normal;font-size:8.51503px;line-height:1.35;font-family:Emmett;-inkscape-font-specification:Emmett;text-align:center;text-anchor:middle;stroke-width:0.0443487"
       id="text1431-3-3"
       transform="scale(0.97823792,1.0222462)"
       aria-label="22">
      <path
         id="path852"
         style="font-style:normal;font-variant:normal;font-weight:normal;font-stretch:normal;font-family:Emmett;-inkscape-font-specification:Emmett;stroke-width:0.0443487"
         d="m 6.9640242,8.6480988 0.093665,-0.1362405 q 0.1532706,0.1703006 0.2213908,0.4002064 0.076635,0.2299059 0.076635,0.5194169 -0.01703,0.1192104 -0.042575,0.2043607 -0.01703,0.08515 -0.059605,0.1703006 Q 7.0917496,10.172289 6.8277837,10.317045 6.5638178,10.4618 5.9677657,10.4618 q -0.1617856,0 -0.3831764,-0.01703 -0.2128757,-0.0085 -0.6045671,-0.04257 l -0.289511,-0.03406 q -0.059605,-0.0085 -0.1021804,-0.0085 -0.1703006,0.01703 -0.3406012,0.03406 l -0.1447555,0.01703 -0.1788156,0.02554 -0.3235711,0.05109 q -0.1362405,0.01703 -0.1703006,0.01703 -0.1192104,0 -0.1788157,-0.05109 -0.1106953,-0.09366 -0.1106953,-0.383176 0,-0.1532707 0.025545,-0.4002066 Q 3.1918659,9.4229665 3.3536515,9.0142451 3.4643469,8.7162191 3.6601926,8.4352231 3.8645533,8.1542271 4.2136695,7.7965958 4.3669401,7.6433253 4.5372407,7.4985698 4.7416014,7.3197542 5.0566575,7.0898483 5.1332928,7.0302431 5.2184431,6.9365778 5.3035934,6.8343974 5.4142887,6.6726119 L 5.5249841,6.4767662 q 0.1362405,-0.3235711 0.1362405,-0.5449619 0,-0.3746613 -0.3576312,-0.4683267 -0.08515,-0.01703 -0.1277255,-0.01703 -0.1788156,0 -0.3831763,0.1277254 Q 4.5883308,5.6933834 4.2988198,5.9828945 L 4.1966395,6.1106199 3.9326735,6.434191 Q 3.8900984,6.4852812 3.787918,6.425676 3.6942527,6.3660708 3.5835573,6.1617101 L 3.4473168,5.9147742 Q 3.2599862,5.557143 3.2599862,5.3783273 q 0,-0.2384208 0.4002064,-0.6301122 0.6045671,-0.579022 1.7370661,-0.579022 0.1873306,0 0.3491162,0.025545 0.1617856,0.01703 0.4172365,0.1106954 0.579022,0.2128757 0.851503,0.579022 0.2724809,0.3661463 0.2724809,0.9621984 0,0.1788156 -0.025545,0.3831763 Q 7.185415,6.8599425 6.6574831,7.4219345 6.5212426,7.5837201 6.1295513,7.8732311 l -0.2299058,0.1617856 -0.1532706,0.1192104 -0.01703,0.01703 -0.3406012,0.280996 q -0.2043608,0.1703006 -0.280996,0.280996 -0.076635,0.1021804 -0.059605,0.1788156 0.00852,0.042575 0.05109,0.06812 0.00852,0.00851 0.025545,0.01703 L 5.4483489,8.97167 h 0.3661463 l 0.3661462,0.042575 q 0.1277255,0.01703 0.1873307,0.00851 0.1788156,-0.01703 0.3150561,-0.1021803 0.1447555,-0.08515 0.280996,-0.272481 z" />
      <path
         id="path854"
         style="font-style:normal;font-variant:normal;font-weight:normal;font-stretch:normal;font-family:Emmett;-inkscape-font-specification:Emmett;stroke-width:0.0443487"
         d="m 11.920038,8.6480988 0.09366,-0.1362405 q 0.153271,0.1703006 0.221391,0.4002064 0.07663,0.2299059 0.07663,0.5194169 -0.01703,0.1192104 -0.04257,0.2043607 -0.01703,0.08515 -0.0596,0.1703006 -0.161786,0.3661461 -0.425752,0.5109021 -0.263966,0.144755 -0.860018,0.144755 -0.161785,0 -0.383176,-0.01703 -0.212876,-0.0085 -0.6045671,-0.04257 l -0.289511,-0.03406 q -0.059605,-0.0085 -0.1021804,-0.0085 -0.1703006,0.01703 -0.3406012,0.03406 l -0.1447555,0.01703 -0.1788156,0.02554 -0.3235711,0.05109 q -0.1362405,0.01703 -0.1703006,0.01703 -0.1192105,0 -0.1788157,-0.05109 -0.1106954,-0.09366 -0.1106954,-0.383176 0,-0.1532707 0.025545,-0.4002066 Q 8.1478796,9.4229665 8.3096652,9.0142451 8.4203606,8.7162191 8.6162063,8.4352231 8.820567,8.1542271 9.1696832,7.7965958 9.3229537,7.6433253 9.4932543,7.4985698 9.6976151,7.3197542 10.012671,7.0898483 q 0.07664,-0.059605 0.161786,-0.1532705 0.08515,-0.1021804 0.195845,-0.2639659 l 0.110696,-0.1958457 q 0.13624,-0.3235711 0.13624,-0.5449619 0,-0.3746613 -0.357631,-0.4683267 -0.08515,-0.01703 -0.127725,-0.01703 -0.178816,0 -0.3831768,0.1277254 Q 9.5443445,5.6933834 9.2548335,5.9828945 L 9.1526531,6.1106199 8.8886872,6.434191 Q 8.8461121,6.4852812 8.7439317,6.425676 8.6502664,6.3660708 8.539571,6.1617101 L 8.4033305,5.9147742 Q 8.2159999,5.557143 8.2159999,5.3783273 q 0,-0.2384208 0.4002064,-0.6301122 0.6045671,-0.579022 1.7370657,-0.579022 0.187331,0 0.349117,0.025545 0.161785,0.01703 0.417236,0.1106954 0.579022,0.2128757 0.851503,0.579022 0.272481,0.3661463 0.272481,0.9621984 0,0.1788156 -0.02554,0.3831763 -0.07663,0.6301122 -0.604567,1.1921042 -0.136241,0.1617856 -0.527932,0.4512966 l -0.229906,0.1617856 -0.15327,0.1192104 -0.01703,0.01703 -0.340602,0.280996 q -0.20436,0.1703006 -0.280996,0.280996 -0.076635,0.1021804 -0.0596,0.1788156 0.0085,0.042575 0.05109,0.06812 0.0085,0.00851 0.02554,0.01703 L 10.404363,8.97167 h 0.366146 l 0.366146,0.042575 q 0.127726,0.01703 0.187331,0.00851 0.178815,-0.01703 0.315056,-0.1021803 0.144755,-0.08515 0.280996,-0.272481 z" />
    </g>
  </g>
</svg>
