<?xml version="1.0" encoding="UTF-8" standalone="no"?>
<svg
   xmlns:dc="http://purl.org/dc/elements/1.1/"
   xmlns:cc="http://creativecommons.org/ns#"
   xmlns:rdf="http://www.w3.org/1999/02/22-rdf-syntax-ns#"
   xmlns:svg="http://www.w3.org/2000/svg"
   xmlns="http://www.w3.org/2000/svg"
   xmlns:sodipodi="http://sodipodi.sourceforge.net/DTD/sodipodi-0.dtd"
   xmlns:inkscape="http://www.inkscape.org/namespaces/inkscape"
   width="63mm"
   height="88mm"
   viewBox="0 0 63 88"
   version="1.1"
   id="svg8"
   inkscape:version="1.0 (4035a4fb49, 2020-05-01)"
   sodipodi:docname="6.svg">
  <defs
     id="defs2" />
  <sodipodi:namedview
     id="base"
     pagecolor="#ffffff"
     bordercolor="#666666"
     borderopacity="1.0"
     inkscape:pageopacity="0.0"
     inkscape:pageshadow="2"
     inkscape:zoom="1.979899"
     inkscape:cx="147.11701"
     inkscape:cy="171.18852"
     inkscape:document-units="mm"
     inkscape:current-layer="layer3"
     inkscape:document-rotation="0"
     showgrid="false"
     inkscape:window-width="1256"
     inkscape:window-height="1009"
     inkscape:window-x="2942"
     inkscape:window-y="239"
     inkscape:window-maximized="0" />
  <metadata
     id="metadata5">
    <rdf:RDF>
      <cc:Work
         rdf:about="">
        <dc:format>image/svg+xml</dc:format>
        <dc:type
           rdf:resource="http://purl.org/dc/dcmitype/StillImage" />
        <dc:title />
      </cc:Work>
    </rdf:RDF>
  </metadata>
  <g
     inkscape:label="Background"
     inkscape:groupmode="layer"
     id="layer1"
     sodipodi:insensitive="true">
    <rect
       style="fill:#1c71d8;stroke-width:0.00054882;paint-order:markers fill stroke"
       id="rect1402"
       width="63"
       height="88"
       x="0"
       y="0"
       ry="5" />
    <path
       id="path1474"
       style="fill:#62a0ea;stroke-width:1.00875"
       d="m 0,132.14844 v 181.55273 c 0,10.46929 8.4291462,18.89649 18.898438,18.89649 H 204.875 c 5.72115,-21.57845 11.04393,-42.97225 7.57422,-60.36524 C 204.3254,226.76135 134.18184,209.08047 80.490234,183.83594 48.369803,169.1634 21.498855,151.89648 0,132.14844 Z"
       transform="scale(0.26458333)" />
  </g>
  <g
     inkscape:groupmode="layer"
     id="layer2"
     inkscape:label="Edges"
     sodipodi:insensitive="true">
    <circle
       style="fill:#99c1f1;stroke-width:0.00054882;paint-order:markers fill stroke"
       id="path1411"
       cx="7.5"
       cy="7.5"
       r="6" />
    <circle
       r="6"
       cy="81"
       cx="56"
       id="path1411-3"
       style="fill:#99c1f1;stroke-width:0.00054882;paint-order:markers fill stroke" />
  </g>
  <g
     inkscape:groupmode="layer"
     id="layer3"
     inkscape:label="Zahlen">
    <g
       style="font-style:normal;font-variant:normal;font-weight:normal;font-stretch:normal;font-size:33.4406px;line-height:1.35;font-family:Emmett;-inkscape-font-specification:Emmett;text-align:center;text-anchor:middle;stroke-width:0.174169"
       id="text1431"
       transform="scale(0.97823792,1.0222462)"
       aria-label="6">
      <path
         id="path842"
         style="font-style:normal;font-variant:normal;font-weight:normal;font-stretch:normal;font-family:Emmett;-inkscape-font-specification:Emmett;stroke-width:0.174169"
         d="m 31.481783,55.482372 q -3.711906,-0.501609 -5.651461,-3.143416 -2.073317,-2.842451 -2.073317,-8.226388 0,-5.985868 2.641807,-9.530571 2.675248,-3.544704 7.323492,-4.012873 0.367846,-0.06688 0.735693,-0.06688 0.367847,0 0.56849,0 0.434728,0 0.635372,0 l 0.200643,0.03344 1.738912,0.300965 q 1.070099,0.200644 1.404505,0.434728 0.367846,0.200644 0.367846,0.702253 0,0.133762 -0.06688,0.668812 l -0.635371,1.67203 q -0.601931,1.70547 -1.10354,1.70547 -0.401287,0 -1.772352,-0.635371 -0.267525,-0.100322 -0.635371,-0.100322 -0.702253,0 -1.437946,0.267525 -0.702253,0.234084 -1.404506,0.802574 -0.501609,0.434728 -0.735693,0.836015 -0.535049,0.936337 -0.535049,1.437946 0,0.334406 0.234084,0.568491 0.133762,0.167203 0.200643,0.167203 0.234085,-0.03344 2.474605,-0.434728 0.53505,-0.06688 0.836015,-0.06688 0.601931,0 0.836015,0.06688 0.267525,0.03344 0.802574,0.200643 1.404506,0.401288 2.374283,1.337624 1.003218,0.936337 1.705471,2.608367 0.300965,0.702253 0.468168,1.538268 0.200644,0.836015 0.200644,1.705471 0,3.511263 -1.337624,5.58458 -1.304184,2.073317 -4.313838,3.176857 -1.270743,0.501609 -2.77557,0.501609 -0.601931,0 -1.270743,-0.100322 z m -0.702252,-9.296487 v 0.668812 q 0.133762,1.270743 0.535049,1.939555 0.401288,0.668812 1.036659,0.869456 0.300966,0.100322 0.601931,0.100322 0.702253,0 1.237302,-0.53505 0.56849,-0.53505 0.56849,-1.67203 0,-0.300966 -0.03344,-0.56849 0,-0.267525 -0.03344,-0.501609 0,-0.769134 -0.133762,-1.10354 -0.100322,-0.367847 -0.434728,-0.769134 -0.468168,-0.668812 -1.404505,-0.668812 -0.969778,0 -1.471387,0.802574 -0.167203,0.267525 -0.267525,0.468169 -0.200643,0.434728 -0.200643,0.969777 z" />
    </g>
    <g
       style="font-style:normal;font-variant:normal;font-weight:normal;font-stretch:normal;font-size:8.51502px;line-height:1.35;font-family:Emmett;-inkscape-font-specification:Emmett;text-align:center;text-anchor:middle;stroke-width:0.0443487"
       id="text1431-3"
       transform="scale(0.97823792,1.0222462)"
       aria-label="6">
      <path
         id="path845"
         style="font-style:normal;font-variant:normal;font-weight:normal;font-stretch:normal;font-family:Emmett;-inkscape-font-specification:Emmett;stroke-width:0.0443487"
         d="m 57.062715,82.404861 q -0.945167,-0.127725 -1.439038,-0.800412 -0.527931,-0.723776 -0.527931,-2.094695 0,-1.524188 0.672686,-2.426781 0.681202,-0.902592 1.86479,-1.021802 0.09366,-0.01703 0.18733,-0.01703 0.09367,0 0.144755,0 0.110696,0 0.161786,0 l 0.05109,0.0085 0.442781,0.07663 q 0.272481,0.05109 0.357631,0.110695 0.09367,0.05109 0.09367,0.178816 0,0.03406 -0.01703,0.1703 l -0.161785,0.425751 q -0.153271,0.434266 -0.280996,0.434266 -0.10218,0 -0.451296,-0.161785 -0.06812,-0.02555 -0.161785,-0.02555 -0.178816,0 -0.366146,0.06812 -0.178816,0.05961 -0.357631,0.204361 -0.127726,0.110695 -0.187331,0.212875 -0.13624,0.238421 -0.13624,0.366146 0,0.08515 0.05961,0.144755 0.03406,0.04258 0.05109,0.04258 0.05961,-0.0085 0.630112,-0.110695 0.13624,-0.01703 0.212875,-0.01703 0.153271,0 0.212876,0.01703 0.06812,0.0085 0.20436,0.05109 0.357631,0.10218 0.604567,0.340601 0.25545,0.238421 0.434266,0.664172 0.07664,0.178815 0.11921,0.391691 0.05109,0.212875 0.05109,0.434266 0,0.894077 -0.340601,1.422008 -0.332085,0.527931 -1.098437,0.808927 -0.323571,0.127725 -0.706747,0.127725 -0.15327,0 -0.323571,-0.02555 z M 56.8839,80.037686 v 0.1703 q 0.03406,0.323571 0.13624,0.493871 0.10218,0.170301 0.263966,0.221391 0.07663,0.02554 0.15327,0.02554 0.178816,0 0.315056,-0.136241 0.144755,-0.13624 0.144755,-0.425751 0,-0.07664 -0.0085,-0.144755 0,-0.06812 -0.0085,-0.127725 0,-0.195846 -0.03406,-0.280996 -0.02555,-0.09367 -0.110695,-0.195845 -0.11921,-0.170301 -0.357631,-0.170301 -0.246936,0 -0.374661,0.204361 -0.04257,0.06812 -0.06812,0.11921 -0.05109,0.110695 -0.05109,0.246936 z" />
    </g>
    <g
       style="font-style:normal;font-variant:normal;font-weight:normal;font-stretch:normal;font-size:8.51503px;line-height:1.35;font-family:Emmett;-inkscape-font-specification:Emmett;text-align:center;text-anchor:middle;stroke-width:0.0443487"
       id="text1431-3-3"
       transform="scale(0.97823792,1.0222462)"
       aria-label="6">
      <path
         id="path848"
         style="font-style:normal;font-variant:normal;font-weight:normal;font-stretch:normal;font-family:Emmett;-inkscape-font-specification:Emmett;stroke-width:0.0443487"
         d="M 7.4837736,10.504375 Q 6.5386053,10.37665 6.0447336,9.7039625 5.5168017,8.980185 5.5168017,7.6092652 q 0,-1.5241904 0.6726874,-2.4267836 0.6812024,-0.9025931 1.8647915,-1.0218035 0.093665,-0.01703 0.1873307,-0.01703 0.093665,0 0.1447555,0 0.1106954,0 0.1617856,0 l 0.05109,0.00852 0.4427816,0.076635 q 0.272481,0.05109 0.3576313,0.1106954 0.093665,0.05109 0.093665,0.1788156 0,0.03406 -0.01703,0.1703006 L 9.3145051,5.1143614 q -0.1532706,0.4342665 -0.280996,0.4342665 -0.1021804,0 -0.4512966,-0.1617855 -0.06812,-0.025545 -0.1617856,-0.025545 -0.1788156,0 -0.3661463,0.06812 Q 7.875465,5.4890227 7.6966494,5.6337782 7.5689239,5.7444736 7.5093187,5.846654 7.3730782,6.0850748 7.3730782,6.2128003 q 0,0.08515 0.059605,0.1447555 0.03406,0.042575 0.05109,0.042575 0.059605,-0.00852 0.6301122,-0.1106954 0.1362405,-0.01703 0.2128758,-0.01703 0.1532705,0 0.2128757,0.01703 0.06812,0.00852 0.2043608,0.05109 0.3576312,0.1021804 0.6045671,0.3406012 0.2554509,0.2384208 0.4342665,0.6641723 0.076635,0.1788157 0.1192104,0.3916914 0.05109,0.2128758 0.05109,0.4342665 0,0.8940782 -0.3406012,1.42201 -0.3320862,0.5279319 -1.0984389,0.8089279 -0.3235711,0.127725 -0.7067474,0.127725 -0.1532706,0 -0.3235712,-0.02555 z M 7.304958,8.137197 v 0.1703006 q 0.03406,0.3235712 0.1362405,0.4938718 0.1021803,0.1703006 0.2639659,0.2213907 0.076635,0.025545 0.1532705,0.025545 0.1788157,0 0.3150562,-0.1362405 0.1447555,-0.1362404 0.1447555,-0.4257515 0,-0.076635 -0.00852,-0.1447555 0,-0.06812 -0.00851,-0.1277254 0,-0.1958457 -0.03406,-0.280996 Q 8.2416113,7.839171 8.156461,7.7369906 8.0372506,7.56669 7.7988297,7.56669 q -0.2469358,0 -0.3746613,0.2043607 -0.042575,0.06812 -0.06812,0.1192105 -0.05109,0.1106953 -0.05109,0.2469358 z" />
    </g>
  </g>
</svg>
