<?xml version="1.0" encoding="UTF-8" standalone="no"?>
<svg
   xmlns:dc="http://purl.org/dc/elements/1.1/"
   xmlns:cc="http://creativecommons.org/ns#"
   xmlns:rdf="http://www.w3.org/1999/02/22-rdf-syntax-ns#"
   xmlns:svg="http://www.w3.org/2000/svg"
   xmlns="http://www.w3.org/2000/svg"
   xmlns:sodipodi="http://sodipodi.sourceforge.net/DTD/sodipodi-0.dtd"
   xmlns:inkscape="http://www.inkscape.org/namespaces/inkscape"
   width="63mm"
   height="88mm"
   viewBox="0 0 63 88"
   version="1.1"
   id="svg8"
   inkscape:version="1.0 (4035a4fb49, 2020-05-01)"
   sodipodi:docname="76.svg">
  <defs
     id="defs2" />
  <sodipodi:namedview
     id="base"
     pagecolor="#ffffff"
     bordercolor="#666666"
     borderopacity="1.0"
     inkscape:pageopacity="0.0"
     inkscape:pageshadow="2"
     inkscape:zoom="1.979899"
     inkscape:cx="8.7261081"
     inkscape:cy="206.54386"
     inkscape:document-units="mm"
     inkscape:current-layer="layer3"
     inkscape:document-rotation="0"
     showgrid="false"
     inkscape:window-width="2560"
     inkscape:window-height="1377"
     inkscape:window-x="1912"
     inkscape:window-y="-8"
     inkscape:window-maximized="1" />
  <metadata
     id="metadata5">
    <rdf:RDF>
      <cc:Work
         rdf:about="">
        <dc:format>image/svg+xml</dc:format>
        <dc:type
           rdf:resource="http://purl.org/dc/dcmitype/StillImage" />
        <dc:title />
      </cc:Work>
    </rdf:RDF>
  </metadata>
  <g
     inkscape:label="Background"
     inkscape:groupmode="layer"
     id="layer1"
     sodipodi:insensitive="true">
    <rect
       style="fill:#1c71d8;stroke-width:0.00054882;paint-order:markers fill stroke"
       id="rect1402"
       width="63"
       height="88"
       x="0"
       y="0"
       ry="5" />
    <path
       id="path1474"
       style="fill:#62a0ea;stroke-width:1.00875"
       d="m 0,132.14844 v 181.55273 c 0,10.46929 8.4291462,18.89649 18.898438,18.89649 H 204.875 c 5.72115,-21.57845 11.04393,-42.97225 7.57422,-60.36524 C 204.3254,226.76135 134.18184,209.08047 80.490234,183.83594 48.369803,169.1634 21.498855,151.89648 0,132.14844 Z"
       transform="scale(0.26458333)" />
  </g>
  <g
     inkscape:groupmode="layer"
     id="layer2"
     inkscape:label="Edges"
     sodipodi:insensitive="true">
    <circle
       style="fill:#99c1f1;stroke-width:0.00054882;paint-order:markers fill stroke"
       id="path1411"
       cx="7.5"
       cy="7.5"
       r="6" />
    <circle
       r="6"
       cy="81"
       cx="56"
       id="path1411-3"
       style="fill:#99c1f1;stroke-width:0.00054882;paint-order:markers fill stroke" />
  </g>
  <g
     inkscape:groupmode="layer"
     id="layer3"
     inkscape:label="Zahlen">
    <g
       style="font-style:normal;font-variant:normal;font-weight:normal;font-stretch:normal;font-size:33.4406px;line-height:1.35;font-family:Emmett;-inkscape-font-specification:Emmett;text-align:center;text-anchor:middle;stroke-width:0.174169"
       id="text1431"
       transform="scale(0.97823792,1.0222462)"
       aria-label="76">
      <path
         id="path842"
         style="font-style:normal;font-variant:normal;font-weight:normal;font-stretch:normal;font-family:Emmett;-inkscape-font-specification:Emmett;stroke-width:0.174169"
         d="m 15.229912,36.254027 q -0.468168,-3.109976 -0.468168,-4.046313 0,-0.735693 0.200644,-0.969778 0.200643,-0.234084 0.735693,-0.234084 h 13.810968 q 0.267525,0 0.434728,0.668812 0.167203,0.668812 0.167203,2.474605 0,0.601931 -0.334406,1.237302 -0.300965,0.635371 -1.638589,2.608367 l -0.735694,1.13698 q -0.936336,1.538268 -1.504827,2.74213 -0.535049,1.170421 -0.869455,2.273961 -0.735694,2.708688 -0.735694,4.079753 0,0.601931 0.167203,1.170421 0.702253,2.608367 2.74213,2.608367 l 0.468168,-0.03344 q 0,1.10354 -0.601931,1.906115 -0.60193,0.802574 -2.039876,1.404505 -1.304184,0.501609 -2.508045,0.501609 -0.902897,0 -1.605149,-0.234084 -3.945991,-1.270743 -3.945991,-5.082972 0,-1.170421 0.401287,-2.574926 0.267525,-1.003218 0.836015,-2.106758 0.56849,-1.10354 2.742129,-4.748565 l 0.601931,-0.902897 q 1.170421,-1.504827 1.605149,-2.173639 0.434728,-0.702252 0.434728,-1.070099 0,-0.167203 -0.167203,-0.367847 -0.167203,-0.234084 -0.401287,-0.300965 -0.234085,-0.06688 -0.769134,-0.06688 -0.56849,0 -0.969778,0 h -0.334406 l -1.471386,-0.06688 q -1.203862,0 -1.67203,0.200643 -0.468169,0.200644 -1.304184,1.136981 l -0.167203,0.167203 q -0.100322,0.167203 -0.334406,0.234084 -0.334406,0.06688 -0.468168,-0.167203 l -0.167203,-0.401287 v -0.133763 z" />
      <path
         id="path844"
         style="font-style:normal;font-variant:normal;font-weight:normal;font-stretch:normal;font-family:Emmett;-inkscape-font-specification:Emmett;stroke-width:0.174169"
         d="M 41.246179,55.482372 Q 37.534272,54.980763 35.594717,52.338956 33.5214,49.496505 33.5214,44.112568 q 0,-5.985868 2.641807,-9.530571 2.675248,-3.544704 7.323492,-4.012873 0.367847,-0.06688 0.735693,-0.06688 0.367847,0 0.56849,0 0.434728,0 0.635372,0 l 0.200643,0.03344 1.738912,0.300965 q 1.070099,0.200644 1.404505,0.434728 0.367847,0.200644 0.367847,0.702253 0,0.133762 -0.06688,0.668812 l -0.635371,1.67203 q -0.601931,1.70547 -1.10354,1.70547 -0.401287,0 -1.772352,-0.635371 -0.267525,-0.100322 -0.635371,-0.100322 -0.702253,0 -1.437946,0.267525 -0.702253,0.234084 -1.404505,0.802574 -0.501609,0.434728 -0.735694,0.836015 -0.535049,0.936337 -0.535049,1.437946 0,0.334406 0.234084,0.568491 0.133762,0.167203 0.200644,0.167203 0.234084,-0.03344 2.474604,-0.434728 0.53505,-0.06688 0.836015,-0.06688 0.601931,0 0.836015,0.06688 0.267525,0.03344 0.802575,0.200643 1.404505,0.401288 2.374282,1.337624 1.003218,0.936337 1.705471,2.608367 0.300965,0.702253 0.468168,1.538268 0.200644,0.836015 0.200644,1.705471 0,3.511263 -1.337624,5.58458 -1.304183,2.073317 -4.313838,3.176857 -1.270742,0.501609 -2.77557,0.501609 -0.60193,0 -1.270742,-0.100322 z m -0.702253,-9.296487 v 0.668812 q 0.133762,1.270743 0.53505,1.939555 0.401287,0.668812 1.036658,0.869456 0.300966,0.100322 0.601931,0.100322 0.702253,0 1.237302,-0.53505 0.568491,-0.53505 0.568491,-1.67203 0,-0.300966 -0.03344,-0.56849 0,-0.267525 -0.03344,-0.501609 0,-0.769134 -0.133762,-1.10354 -0.100322,-0.367847 -0.434728,-0.769134 -0.468168,-0.668812 -1.404505,-0.668812 -0.969778,0 -1.471387,0.802574 -0.167203,0.267525 -0.267524,0.468169 -0.200644,0.434728 -0.200644,0.969777 z" />
    </g>
    <g
       style="font-style:normal;font-variant:normal;font-weight:normal;font-stretch:normal;font-size:8.51502px;line-height:1.35;font-family:Emmett;-inkscape-font-specification:Emmett;text-align:center;text-anchor:middle;stroke-width:0.0443487"
       id="text1431-3"
       transform="scale(0.97823792,1.0222462)"
       aria-label="76">
      <path
         id="path847"
         style="font-style:normal;font-variant:normal;font-weight:normal;font-stretch:normal;font-family:Emmett;-inkscape-font-specification:Emmett;stroke-width:0.0443487"
         d="m 52.924482,77.508725 q -0.11921,-0.791897 -0.11921,-1.030318 0,-0.18733 0.05109,-0.246936 0.05109,-0.05961 0.18733,-0.05961 h 3.516704 q 0.06812,0 0.110695,0.170301 0.04258,0.1703 0.04258,0.630111 0,0.153271 -0.08515,0.315056 -0.07663,0.161785 -0.417236,0.664172 l -0.187331,0.28951 q -0.23842,0.391691 -0.383176,0.698232 -0.13624,0.298026 -0.22139,0.579021 -0.187331,0.689717 -0.187331,1.038833 0,0.15327 0.04258,0.298026 0.178815,0.664171 0.698231,0.664171 l 0.11921,-0.0085 q 0,0.280996 -0.15327,0.485356 -0.15327,0.204361 -0.519416,0.357631 -0.332086,0.127725 -0.638627,0.127725 -0.229905,0 -0.408721,-0.05961 -1.004772,-0.323571 -1.004772,-1.294283 0,-0.298026 0.10218,-0.655656 0.06812,-0.255451 0.212876,-0.536447 0.144755,-0.280995 0.698231,-1.209133 l 0.153271,-0.229905 q 0.298025,-0.383176 0.408721,-0.553476 0.110695,-0.178816 0.110695,-0.272481 0,-0.04257 -0.04257,-0.09366 -0.04258,-0.05961 -0.10218,-0.07664 -0.05961,-0.01703 -0.195846,-0.01703 -0.144755,0 -0.246935,0 h -0.08515 l -0.374661,-0.01703 q -0.30654,0 -0.425751,0.05109 -0.11921,0.05109 -0.332085,0.28951 l -0.04257,0.04257 q -0.02555,0.04258 -0.08515,0.05961 -0.08515,0.01703 -0.11921,-0.04257 l -0.04257,-0.10218 v -0.03406 z" />
      <path
         id="path849"
         style="font-style:normal;font-variant:normal;font-weight:normal;font-stretch:normal;font-family:Emmett;-inkscape-font-specification:Emmett;stroke-width:0.0443487"
         d="m 59.549035,82.404861 q -0.945167,-0.127725 -1.439039,-0.800412 -0.527931,-0.723776 -0.527931,-2.094695 0,-1.524188 0.672687,-2.426781 0.681201,-0.902592 1.864789,-1.021802 0.09367,-0.01703 0.187331,-0.01703 0.09367,0 0.144755,0 0.110695,0 0.161785,0 l 0.05109,0.0085 0.442781,0.07663 q 0.27248,0.05109 0.357631,0.110695 0.09367,0.05109 0.09367,0.178816 0,0.03406 -0.01703,0.1703 l -0.161786,0.425751 q -0.15327,0.434266 -0.280995,0.434266 -0.102181,0 -0.451296,-0.161785 -0.06812,-0.02555 -0.161786,-0.02555 -0.178815,0 -0.366146,0.06812 -0.178815,0.05961 -0.357631,0.204361 -0.127725,0.110695 -0.18733,0.212875 -0.13624,0.238421 -0.13624,0.366146 0,0.08515 0.05961,0.144755 0.03406,0.04258 0.05109,0.04258 0.0596,-0.0085 0.630111,-0.110695 0.136241,-0.01703 0.212876,-0.01703 0.15327,0 0.212875,0.01703 0.06812,0.0085 0.204361,0.05109 0.357631,0.10218 0.604566,0.340601 0.255451,0.238421 0.434266,0.664172 0.07664,0.178815 0.119211,0.391691 0.05109,0.212875 0.05109,0.434266 0,0.894077 -0.340601,1.422008 -0.332086,0.527931 -1.098438,0.808927 -0.32357,0.127725 -0.706746,0.127725 -0.153271,0 -0.323571,-0.02555 z M 59.37022,80.037686 v 0.1703 q 0.03406,0.323571 0.13624,0.493871 0.10218,0.170301 0.263965,0.221391 0.07664,0.02554 0.153271,0.02554 0.178815,0 0.315056,-0.136241 0.144755,-0.13624 0.144755,-0.425751 0,-0.07664 -0.0085,-0.144755 0,-0.06812 -0.0085,-0.127725 0,-0.195846 -0.03406,-0.280996 -0.02555,-0.09367 -0.110695,-0.195845 -0.119211,-0.170301 -0.357631,-0.170301 -0.246936,0 -0.374661,0.204361 -0.04257,0.06812 -0.06812,0.11921 -0.05109,0.110695 -0.05109,0.246936 z" />
    </g>
    <g
       style="font-style:normal;font-variant:normal;font-weight:normal;font-stretch:normal;font-size:8.51503px;line-height:1.35;font-family:Emmett;-inkscape-font-specification:Emmett;text-align:center;text-anchor:middle;stroke-width:0.0443487"
       id="text1431-3-3"
       transform="scale(0.97823792,1.0222462)"
       aria-label="76">
      <path
         id="path852"
         style="font-style:normal;font-variant:normal;font-weight:normal;font-stretch:normal;font-family:Emmett;-inkscape-font-specification:Emmett;stroke-width:0.0443487"
         d="M 3.3455356,5.6082331 Q 3.2263252,4.8163354 3.2263252,4.5779145 q 0,-0.1873306 0.05109,-0.2469358 0.05109,-0.059605 0.1873306,-0.059605 h 3.5167074 q 0.06812,0 0.1106954,0.1703006 0.042575,0.1703006 0.042575,0.6301123 0,0.1532705 -0.08515,0.3150561 -0.076635,0.1617855 -0.4172364,0.6641723 L 6.4450065,6.3405257 Q 6.2065857,6.7322171 6.0618302,7.0387582 5.9255897,7.3367842 5.8404394,7.6177802 5.6531087,8.3074976 5.6531087,8.6566138 q 0,0.1532706 0.042575,0.2980261 0.1788156,0.6641723 0.6982324,0.6641723 l 0.1192104,-0.00852 q 0,0.280996 -0.1532705,0.4853568 -0.1532705,0.204361 -0.5194168,0.357631 -0.3320862,0.127726 -0.6386273,0.127726 -0.2299058,0 -0.4087214,-0.05961 -1.0047735,-0.323571 -1.0047735,-1.2942842 0,-0.298026 0.1021803,-0.6556573 0.06812,-0.2554509 0.2128758,-0.5364468 0.1447555,-0.280996 0.6982324,-1.2091343 L 4.9548763,6.5959766 Q 5.2529023,6.2128003 5.3635977,6.0424997 5.4742931,5.863684 5.4742931,5.7700187 q 0,-0.042575 -0.042575,-0.093665 -0.042575,-0.059605 -0.1021803,-0.076635 -0.059605,-0.01703 -0.1958457,-0.01703 -0.1447555,0 -0.2469359,0 h -0.08515 L 4.4269444,5.565658 q -0.3065411,0 -0.4257515,0.05109 -0.1192104,0.05109 -0.3320861,0.289511 l -0.042575,0.042575 q -0.025545,0.042575 -0.08515,0.059605 -0.08515,0.01703 -0.1192104,-0.042575 L 3.3795957,5.863684 v -0.03406 z" />
      <path
         id="path854"
         style="font-style:normal;font-variant:normal;font-weight:normal;font-stretch:normal;font-family:Emmett;-inkscape-font-specification:Emmett;stroke-width:0.0443487"
         d="M 9.9700958,10.504375 Q 9.0249274,10.37665 8.5310557,9.7039625 8.0031238,8.980185 8.0031238,7.6092652 q 0,-1.5241904 0.6726874,-2.4267836 0.6812024,-0.9025931 1.8647918,-1.0218035 0.09366,-0.01703 0.18733,-0.01703 0.09367,0 0.144756,0 0.110695,0 0.161785,0 l 0.05109,0.00852 0.442781,0.076635 q 0.272481,0.05109 0.357631,0.1106954 0.09367,0.05109 0.09367,0.1788156 0,0.03406 -0.01703,0.1703006 l -0.161786,0.4257515 q -0.15327,0.4342665 -0.280996,0.4342665 -0.10218,0 -0.451296,-0.1617855 -0.06812,-0.025545 -0.161786,-0.025545 -0.178816,0 -0.366146,0.06812 -0.178816,0.059605 -0.357632,0.2043607 -0.127725,0.1106954 -0.1873302,0.2128758 -0.1362404,0.2384208 -0.1362404,0.3661463 0,0.08515 0.059605,0.1447555 0.03406,0.042575 0.05109,0.042575 0.059605,-0.00852 0.6301122,-0.1106954 0.13624,-0.01703 0.212876,-0.01703 0.15327,0 0.212875,0.01703 0.06812,0.00852 0.204361,0.05109 0.357631,0.1021804 0.604567,0.3406012 0.255451,0.2384208 0.434267,0.6641723 0.07663,0.1788157 0.11921,0.3916914 0.05109,0.2128758 0.05109,0.4342665 0,0.8940782 -0.340601,1.42201 -0.332086,0.5279319 -1.098439,0.8089279 -0.323571,0.127725 -0.706747,0.127725 -0.153271,0 -0.3235712,-0.02555 z M 9.7912801,8.137197 v 0.1703006 q 0.03406,0.3235712 0.1362405,0.4938718 0.1021804,0.1703006 0.2639664,0.2213907 0.07663,0.025545 0.15327,0.025545 0.178816,0 0.315056,-0.1362405 0.144756,-0.1362404 0.144756,-0.4257515 0,-0.076635 -0.0085,-0.1447555 0,-0.06812 -0.0085,-0.1277254 0,-0.1958457 -0.03406,-0.280996 Q 10.727933,7.839171 10.642783,7.7369906 10.523573,7.56669 10.285152,7.56669 q -0.246936,0 -0.3746615,0.2043607 -0.042575,0.06812 -0.06812,0.1192105 -0.05109,0.1106953 -0.05109,0.2469358 z" />
    </g>
  </g>
</svg>
