<?xml version="1.0" encoding="UTF-8" standalone="no"?>
<svg
   xmlns:dc="http://purl.org/dc/elements/1.1/"
   xmlns:cc="http://creativecommons.org/ns#"
   xmlns:rdf="http://www.w3.org/1999/02/22-rdf-syntax-ns#"
   xmlns:svg="http://www.w3.org/2000/svg"
   xmlns="http://www.w3.org/2000/svg"
   xmlns:sodipodi="http://sodipodi.sourceforge.net/DTD/sodipodi-0.dtd"
   xmlns:inkscape="http://www.inkscape.org/namespaces/inkscape"
   sodipodi:docname="Double.svg"
   inkscape:version="1.0 (4035a4fb49, 2020-05-01)"
   id="svg8"
   version="1.1"
   viewBox="0 0 63 88"
   height="88mm"
   width="63mm">
  <defs
     id="defs2" />
  <sodipodi:namedview
     inkscape:window-maximized="1"
     inkscape:window-y="-8"
     inkscape:window-x="1912"
     inkscape:window-height="1377"
     inkscape:window-width="2560"
     showgrid="false"
     inkscape:document-rotation="0"
     inkscape:current-layer="layer3"
     inkscape:document-units="mm"
     inkscape:cy="169.90013"
     inkscape:cx="74.349375"
     inkscape:zoom="2.8"
     inkscape:pageshadow="2"
     inkscape:pageopacity="0.0"
     borderopacity="1.0"
     bordercolor="#666666"
     pagecolor="#ffffff"
     id="base" />
  <metadata
     id="metadata5">
    <rdf:RDF>
      <cc:Work
         rdf:about="">
        <dc:format>image/svg+xml</dc:format>
        <dc:type
           rdf:resource="http://purl.org/dc/dcmitype/StillImage" />
        <dc:title />
      </cc:Work>
    </rdf:RDF>
  </metadata>
  <g
     sodipodi:insensitive="true"
     id="layer1"
     inkscape:groupmode="layer"
     inkscape:label="Background">
    <rect
       ry="5"
       y="0"
       x="0"
       height="88"
       width="63"
       id="rect1402"
       style="fill:#1c71d8;stroke-width:0.00054882;paint-order:markers fill stroke" />
    <path
       transform="scale(0.26458333)"
       d="m 0,132.14844 v 181.55273 c 0,10.46929 8.4291462,18.89649 18.898438,18.89649 H 204.875 c 5.72115,-21.57845 11.04393,-42.97225 7.57422,-60.36524 C 204.3254,226.76135 134.18184,209.08047 80.490234,183.83594 48.369803,169.1634 21.498855,151.89648 0,132.14844 Z"
       style="fill:#62a0ea;stroke-width:1.00875"
       id="path1474" />
  </g>
  <g
     sodipodi:insensitive="true"
     inkscape:label="Edges"
     id="layer2"
     inkscape:groupmode="layer">
    <circle
       r="6"
       cy="7.5"
       cx="7.5"
       id="path1411"
       style="fill:#99c1f1;stroke-width:0.00054882;paint-order:markers fill stroke" />
    <circle
       style="fill:#99c1f1;stroke-width:0.00054882;paint-order:markers fill stroke"
       id="path1411-3"
       cx="56"
       cy="81"
       r="6" />
  </g>
  <g
     inkscape:label="Zahlen"
     id="layer3"
     inkscape:groupmode="layer">
    <g
       style="font-style:normal;font-variant:normal;font-weight:normal;font-stretch:normal;font-size:33.4406px;line-height:1.35;font-family:Emmett;-inkscape-font-specification:Emmett;text-align:center;text-anchor:middle;stroke-width:0.174169"
       id="text1431"
       transform="scale(0.97823792,1.0222462)"
       aria-label="2x">
      <path
         id="path842"
         style="font-style:normal;font-variant:normal;font-weight:normal;font-stretch:normal;font-family:Emmett;-inkscape-font-specification:Emmett;stroke-width:0.174169"
         d="m 30.191708,48.192321 0.367846,-0.535049 q 0.601931,0.668812 0.869456,1.571708 0.300965,0.902896 0.300965,2.039877 -0.06688,0.468168 -0.167203,0.802574 -0.06688,0.334406 -0.234084,0.668812 -0.635371,1.437946 -1.67203,2.006436 -1.036659,0.56849 -3.377501,0.56849 -0.635371,0 -1.504827,-0.06688 -0.836015,-0.03344 -2.374282,-0.167203 l -1.136981,-0.133762 q -0.234084,-0.03344 -0.401287,-0.03344 -0.668812,0.06688 -1.337624,0.133763 l -0.56849,0.06688 -0.702253,0.100322 -1.270743,0.200643 q -0.535049,0.06688 -0.668812,0.06688 -0.468168,0 -0.702252,-0.200643 -0.434728,-0.367847 -0.434728,-1.504827 0,-0.601931 0.100322,-1.571709 0.100321,-0.969777 0.735693,-2.574926 0.434728,-1.170421 1.203861,-2.273961 0.802575,-1.10354 2.17364,-2.508045 0.60193,-0.601931 1.270742,-1.170421 0.802575,-0.702252 2.039877,-1.605149 0.300965,-0.234084 0.635371,-0.601931 0.334406,-0.401287 0.769134,-1.036658 l 0.434728,-0.769134 q 0.53505,-1.270743 0.53505,-2.140199 0,-1.471386 -1.404506,-1.839233 -0.334406,-0.06688 -0.501609,-0.06688 -0.702252,0 -1.504827,0.501609 -0.802574,0.468169 -1.939554,1.605149 l -0.401288,0.501609 -1.036658,1.270743 q -0.167203,0.200644 -0.568491,-0.03344 -0.367846,-0.234084 -0.802574,-1.036658 l -0.53505,-0.969778 q -0.735693,-1.404505 -0.735693,-2.106758 0,-0.936336 1.571708,-2.474604 2.374283,-2.273961 6.821883,-2.273961 0.735693,0 1.371065,0.100322 0.635371,0.06688 1.638589,0.434728 2.273961,0.836015 3.34406,2.273961 1.0701,1.437945 1.0701,3.778787 0,0.702253 -0.100322,1.504828 -0.300966,2.474604 -2.374283,4.681684 -0.53505,0.635371 -2.073317,1.772352 l -0.902896,0.635371 -0.601931,0.468168 -0.06688,0.06688 -1.337624,1.103539 q -0.802575,0.668813 -1.10354,1.10354 -0.300966,0.401288 -0.234085,0.702253 0.03344,0.167203 0.200644,0.267525 0.03344,0.03344 0.100322,0.06688 l 1.270743,-0.100322 h 1.437946 l 1.437945,0.167203 q 0.501609,0.06688 0.735694,0.03344 0.702252,-0.06688 1.237302,-0.401287 0.56849,-0.334406 1.10354,-1.0701 z" />
      <path
         id="path844"
         style="font-style:normal;font-variant:normal;font-weight:normal;font-stretch:normal;font-family:Emmett;-inkscape-font-specification:Emmett;stroke-width:0.174169"
         d="m 34.774114,39.364003 q -0.267524,-1.571709 -0.267524,-2.508046 0,-0.535049 0.100321,-0.769133 0.133763,-0.267525 0.334406,-0.267525 h 5.751784 q 0.334406,0 0.468168,0.334406 0.133763,0.300965 0.133763,1.304183 0,0.267525 0,0.501609 0,0.200644 0.133762,1.136981 v 0.133762 l 0.200644,1.070099 q 0.06688,0.401288 0.267525,0.635372 0.234084,0.234084 0.56849,0.234084 0.267525,0 0.434728,-0.167203 0.300965,-0.300965 0.401287,-0.668812 l 0.300965,-1.170421 0.03344,-0.200644 0.200643,-1.237302 V 37.55821 l 0.100322,-1.10354 q 0.100322,-0.635371 0.56849,-0.635371 h 5.116412 q 0.334406,0 0.334406,0.802574 0,0.702253 -0.234084,2.073318 -0.06688,0.501609 -0.434728,1.571708 -0.367846,1.036658 -0.836015,1.805792 -0.468168,0.769134 -1.337624,1.738912 -0.434727,0.434727 -0.434727,0.936336 0,0.769134 1.103539,1.738912 l 0.668812,0.702252 q 1.304184,1.471387 1.805793,4.046313 0.133762,0.56849 0.200643,1.203862 0.06688,0.601931 0.06688,1.036658 0,0.836015 -0.200644,1.237303 -0.167203,0.367846 -0.367847,0.367846 h -5.618021 q -0.03344,-0.03344 -0.06688,-0.03344 -0.234084,-0.167203 -0.434728,-0.568491 -0.06688,-0.100321 -0.100321,-0.234084 -0.133763,-0.635371 -0.133763,-2.608367 l -0.434728,-1.504827 q -0.06688,-0.234084 -0.200643,-0.501609 -0.100322,-0.267525 -0.267525,-0.501609 -0.133762,-0.267525 -0.53505,-0.267525 -0.167203,0 -0.401287,0.167203 -0.234084,0.133763 -0.401287,0.401288 -0.133763,0.267524 -0.367847,0.902896 -0.234084,0.601931 -0.468168,1.939555 l -0.06688,0.635371 -0.133763,1.504827 v 0.167203 q -0.100322,0.501609 -0.501609,0.501609 h -5.01609 q -0.234084,0 -0.434728,-0.300965 -0.167203,-0.300966 -0.167203,-0.969778 0,-0.702252 0.167203,-1.605149 0.200644,-0.902896 0.635372,-2.24052 0.434727,-1.337624 1.939555,-3.109976 0.334406,-0.367846 0.468168,-0.635371 0.133762,-0.267525 0.133762,-0.501609 0,-0.434728 -0.06688,-0.53505 -0.100322,-0.200643 -1.170421,-1.538267 -0.367847,-0.468169 -0.702253,-1.337625 -0.434727,-1.103539 -0.702252,-2.24052 z" />
    </g>
    <g
       style="font-style:normal;font-variant:normal;font-weight:normal;font-stretch:normal;font-size:8.51502px;line-height:1.35;font-family:Emmett;-inkscape-font-specification:Emmett;text-align:center;text-anchor:middle;stroke-width:0.0443487"
       id="text1431-3"
       transform="scale(0.97823792,1.0222462)"
       aria-label="2x">
      <path
         id="path847"
         style="font-style:normal;font-variant:normal;font-weight:normal;font-stretch:normal;font-family:Emmett;-inkscape-font-specification:Emmett;stroke-width:0.0443487"
         d="m 56.734222,80.548587 0.09366,-0.136241 q 0.15327,0.170301 0.221391,0.400206 0.07663,0.229906 0.07663,0.519417 -0.01703,0.11921 -0.04257,0.20436 -0.01703,0.08515 -0.05961,0.170301 -0.161785,0.366145 -0.425751,0.510901 -0.263965,0.144755 -0.860017,0.144755 -0.161785,0 -0.383176,-0.01703 -0.212875,-0.0085 -0.604566,-0.04257 l -0.289511,-0.03406 q -0.05961,-0.0085 -0.10218,-0.0085 -0.1703,0.01703 -0.340601,0.03406 l -0.144755,0.01703 -0.178816,0.02555 -0.32357,0.05109 q -0.136241,0.01703 -0.170301,0.01703 -0.11921,0 -0.178815,-0.05109 -0.110695,-0.09367 -0.110695,-0.383176 0,-0.15327 0.02555,-0.400206 0.02555,-0.246935 0.18733,-0.655656 0.110695,-0.298026 0.306541,-0.579022 0.20436,-0.280995 0.553476,-0.638626 0.153271,-0.153271 0.323571,-0.298026 0.20436,-0.178815 0.519416,-0.408721 0.07664,-0.0596 0.161786,-0.15327 0.08515,-0.102181 0.195845,-0.263966 l 0.110695,-0.195845 q 0.136241,-0.323571 0.136241,-0.544962 0,-0.374661 -0.357631,-0.468326 -0.08515,-0.01703 -0.127726,-0.01703 -0.178815,0 -0.383175,0.127725 -0.204361,0.119211 -0.493872,0.408721 l -0.10218,0.127726 -0.263966,0.32357 q -0.04257,0.05109 -0.144755,-0.0085 -0.09366,-0.05961 -0.20436,-0.263965 l -0.136241,-0.246936 q -0.18733,-0.357631 -0.18733,-0.536446 0,-0.238421 0.400206,-0.630112 0.604566,-0.579021 1.737064,-0.579021 0.18733,0 0.349116,0.02554 0.161785,0.01703 0.417236,0.110695 0.579021,0.212876 0.851502,0.579022 0.272481,0.366146 0.272481,0.962197 0,0.178815 -0.02555,0.383176 -0.07663,0.630111 -0.604566,1.192103 -0.13624,0.161785 -0.527931,0.451296 l -0.229906,0.161785 -0.15327,0.119211 -0.01703,0.01703 -0.340601,0.280995 q -0.204361,0.170301 -0.280996,0.280996 -0.07663,0.10218 -0.0596,0.178815 0.0085,0.04258 0.05109,0.06812 0.0085,0.0085 0.02554,0.01703 l 0.323571,-0.02555 h 0.366146 l 0.366146,0.04257 q 0.127725,0.01703 0.18733,0.0085 0.178816,-0.01703 0.315056,-0.102181 0.144755,-0.08515 0.280996,-0.27248 z" />
      <path
         id="path849"
         style="font-style:normal;font-variant:normal;font-weight:normal;font-stretch:normal;font-family:Emmett;-inkscape-font-specification:Emmett;stroke-width:0.0443487"
         d="m 57.901046,78.300621 q -0.06812,-0.400206 -0.06812,-0.638626 0,-0.13624 0.02555,-0.195846 0.03406,-0.06812 0.08515,-0.06812 h 1.464583 q 0.08515,0 0.119211,0.08515 0.03406,0.07664 0.03406,0.332086 0,0.06812 0,0.127726 0,0.05109 0.03406,0.28951 v 0.03406 l 0.05109,0.272481 q 0.01703,0.10218 0.06812,0.161785 0.0596,0.0596 0.144755,0.0596 0.06812,0 0.110696,-0.04257 0.07663,-0.07663 0.10218,-0.1703 l 0.07664,-0.298026 0.0085,-0.05109 0.05109,-0.315056 v -0.04257 l 0.02555,-0.280995 q 0.02555,-0.161786 0.144756,-0.161786 h 1.302798 q 0.08515,0 0.08515,0.204361 0,0.178815 -0.05961,0.527931 -0.01703,0.127725 -0.110696,0.400206 -0.09367,0.263966 -0.212875,0.459811 -0.11921,0.195846 -0.340601,0.442781 -0.110695,0.110695 -0.110695,0.238421 0,0.195845 0.280996,0.442781 l 0.1703,0.178815 q 0.332086,0.374661 0.459811,1.030318 0.03406,0.144755 0.05109,0.30654 0.01703,0.153271 0.01703,0.263966 0,0.212876 -0.05109,0.315056 -0.04257,0.09367 -0.09366,0.09367 h -1.430524 q -0.0085,-0.0085 -0.01703,-0.0085 -0.0596,-0.04257 -0.110695,-0.144755 -0.01703,-0.02554 -0.02555,-0.05961 -0.03406,-0.161785 -0.03406,-0.664171 l -0.110695,-0.383176 q -0.01703,-0.0596 -0.05109,-0.127725 -0.02555,-0.06812 -0.06812,-0.127726 -0.03406,-0.06812 -0.13624,-0.06812 -0.04257,0 -0.10218,0.04257 -0.0596,0.03406 -0.10218,0.102181 -0.03406,0.06812 -0.09367,0.229905 -0.0596,0.15327 -0.11921,0.493871 l -0.01703,0.161786 -0.03406,0.383176 v 0.04257 q -0.02555,0.127725 -0.127725,0.127725 h -1.277253 q -0.0596,0 -0.110696,-0.07664 -0.04257,-0.07663 -0.04257,-0.246936 0,-0.178815 0.04257,-0.408721 0.05109,-0.229905 0.161786,-0.570506 0.110695,-0.340601 0.493871,-0.791897 0.08515,-0.09367 0.11921,-0.161785 0.03406,-0.06812 0.03406,-0.127726 0,-0.110695 -0.01703,-0.13624 -0.02555,-0.05109 -0.298025,-0.391691 -0.09367,-0.11921 -0.178816,-0.340601 -0.110695,-0.280995 -0.178815,-0.570506 z" />
    </g>
    <g
       style="font-style:normal;font-variant:normal;font-weight:normal;font-stretch:normal;font-size:8.51503px;line-height:1.35;font-family:Emmett;-inkscape-font-specification:Emmett;text-align:center;text-anchor:middle;stroke-width:0.0443487"
       id="text1431-3-3"
       transform="scale(0.97823792,1.0222462)"
       aria-label="2x">
      <path
         id="path852"
         style="font-style:normal;font-variant:normal;font-weight:normal;font-stretch:normal;font-family:Emmett;-inkscape-font-specification:Emmett;stroke-width:0.0443487"
         d="m 7.1552797,8.6480988 0.093665,-0.1362405 q 0.1532705,0.1703006 0.2213907,0.4002064 0.076635,0.2299059 0.076635,0.5194169 -0.01703,0.1192104 -0.042575,0.2043607 -0.01703,0.08515 -0.059605,0.1703006 Q 7.2830052,10.172289 7.0190393,10.317045 6.7550733,10.4618 6.1590212,10.4618 q -0.1617855,0 -0.3831763,-0.01703 -0.2128757,-0.0085 -0.6045671,-0.04257 l -0.289511,-0.03406 q -0.059605,-0.0085 -0.1021804,-0.0085 -0.1703006,0.01703 -0.3406012,0.03406 l -0.1447555,0.01703 -0.1788156,0.02554 -0.3235712,0.05109 q -0.1362404,0.01703 -0.1703006,0.01703 -0.1192104,0 -0.1788156,-0.05109 -0.1106954,-0.09366 -0.1106954,-0.383176 0,-0.1532707 0.025545,-0.4002066 Q 3.3831215,9.4229665 3.5449071,9.0142451 3.6556025,8.7162191 3.8514481,8.4352231 4.0558089,8.1542271 4.4049251,7.7965958 4.5581956,7.6433253 4.7284962,7.4985698 4.9328569,7.3197542 5.247913,7.0898483 5.3245483,7.0302431 5.4096986,6.9365778 5.4948489,6.8343974 5.6055443,6.6726119 L 5.7162397,6.4767662 q 0.1362405,-0.3235711 0.1362405,-0.5449619 0,-0.3746613 -0.3576313,-0.4683267 -0.08515,-0.01703 -0.1277254,-0.01703 -0.1788157,0 -0.3831764,0.1277254 Q 4.7795864,5.6933834 4.4900754,5.9828945 L 4.387895,6.1106199 4.1239291,6.434191 Q 4.0813539,6.4852812 3.9791736,6.425676 3.8855083,6.3660708 3.7748129,6.1617101 L 3.6385724,5.9147742 Q 3.4512417,5.557143 3.4512417,5.3783273 q 0,-0.2384208 0.4002064,-0.6301122 0.6045672,-0.579022 1.7370661,-0.579022 0.1873307,0 0.3491163,0.025545 0.1617855,0.01703 0.4172364,0.1106954 0.5790221,0.2128757 0.851503,0.579022 0.272481,0.3661463 0.272481,0.9621984 0,0.1788156 -0.025545,0.3831763 Q 7.3766705,6.8599425 6.8487387,7.4219345 6.7124982,7.5837201 6.3208068,7.8732311 L 6.090901,8.0350167 5.9376305,8.1542271 l -0.01703,0.01703 -0.3406012,0.280996 q -0.2043607,0.1703006 -0.280996,0.280996 -0.076635,0.1021804 -0.059605,0.1788156 0.00851,0.042575 0.05109,0.06812 0.00851,0.00851 0.025545,0.01703 L 5.6396044,8.97167 h 0.3661463 l 0.3661463,0.042575 q 0.1277254,0.01703 0.1873306,0.00851 0.1788157,-0.01703 0.3150562,-0.1021803 0.1447555,-0.08515 0.2809959,-0.272481 z" />
      <path
         id="path854"
         style="font-style:normal;font-variant:normal;font-weight:normal;font-stretch:normal;font-family:Emmett;-inkscape-font-specification:Emmett;stroke-width:0.0443487"
         d="m 8.3221051,6.4001309 q -0.06812,-0.4002064 -0.06812,-0.6386272 0,-0.1362405 0.025545,-0.1958457 0.03406,-0.06812 0.08515,-0.06812 h 1.4645851 q 0.08515,0 0.1192104,0.08515 0.03406,0.076635 0.03406,0.3320862 0,0.06812 0,0.1277255 0,0.05109 0.03406,0.289511 v 0.03406 l 0.05109,0.272481 q 0.01703,0.1021803 0.06812,0.1617855 0.05961,0.059605 0.144756,0.059605 0.06812,0 0.110695,-0.042575 0.07664,-0.076635 0.102181,-0.1703006 l 0.07664,-0.2980261 0.0085,-0.05109 0.05109,-0.3150561 v -0.042575 l 0.02554,-0.280996 q 0.02555,-0.1617855 0.144756,-0.1617855 h 1.302799 q 0.08515,0 0.08515,0.2043607 0,0.1788156 -0.05961,0.5279318 -0.01703,0.1277255 -0.110695,0.4002064 -0.09366,0.263966 -0.212876,0.4598116 -0.11921,0.1958457 -0.340601,0.4427816 -0.110695,0.1106954 -0.110695,0.2384208 0,0.1958457 0.280996,0.4427816 l 0.1703,0.1788156 q 0.332087,0.3746613 0.459812,1.0303186 0.03406,0.1447555 0.05109,0.3065411 0.01703,0.1532706 0.01703,0.2639659 0,0.2128755 -0.05109,0.3150565 -0.04257,0.09367 -0.09366,0.09367 h -1.430525 q -0.0085,-0.0085 -0.01703,-0.0085 -0.05961,-0.04257 -0.110696,-0.144756 -0.01703,-0.02555 -0.02555,-0.05961 -0.03406,-0.161785 -0.03406,-0.6641721 L 10.459378,9.1419706 q -0.01703,-0.059605 -0.05109,-0.1277255 -0.02554,-0.06812 -0.06812,-0.1277254 -0.03406,-0.06812 -0.13624,-0.06812 -0.04257,0 -0.102181,0.042575 -0.0596,0.03406 -0.10218,0.1021803 -0.03406,0.06812 -0.093665,0.2299058 -0.059605,0.1532706 -0.1192104,0.4938718 l -0.01703,0.1617855 -0.03406,0.383176 v 0.04258 Q 9.710055,10.402195 9.6078746,10.402195 H 8.3306201 q -0.059605,0 -0.1106953,-0.07664 -0.042575,-0.07664 -0.042575,-0.246936 0,-0.1788158 0.042575,-0.4087216 0.05109,-0.2299058 0.1617855,-0.570507 0.1106954,-0.3406012 0.4938718,-0.7918978 0.08515,-0.093665 0.1192104,-0.1617855 0.03406,-0.06812 0.03406,-0.1277255 0,-0.1106954 -0.01703,-0.1362405 Q 8.9862774,7.8306559 8.7137965,7.4900547 8.6201312,7.3708443 8.5349809,7.1494536 8.4242855,6.8684576 8.3561652,6.5789465 Z" />
    </g>
  </g>
</svg>
